<svg xmlns="http://www.w3.org/2000/svg" xmlns:xlink="http://www.w3.org/1999/xlink" id="visual" width="900" height="600" version="1.1" viewBox="0 0 900 600"><path fill="#f7770f" d="M0 91L69 67L138 85L208 67L277 85L346 67L415 85L485 91L554 61L623 67L692 97L762 109L831 97L900 85L900 0L831 0L762 0L692 0L623 0L554 0L485 0L415 0L346 0L277 0L208 0L138 0L69 0L0 0Z"/><path fill="#fb9b2a" d="M0 223L69 199L138 271L208 289L277 205L346 223L415 271L485 313L554 283L623 211L692 253L762 241L831 289L900 211L900 83L831 95L762 107L692 95L623 65L554 59L485 89L415 83L346 65L277 83L208 65L138 83L69 65L0 89Z"/><path fill="#fcaf3c" d="M0 439L69 415L138 427L208 421L277 409L346 457L415 439L485 451L554 451L623 391L692 403L762 439L831 415L900 427L900 209L831 287L762 239L692 251L623 209L554 281L485 311L415 269L346 221L277 203L208 287L138 269L69 197L0 221Z"/><path fill="#fb9b2a" d="M0 553L69 529L138 547L208 535L277 547L346 553L415 547L485 553L554 535L623 511L692 529L762 535L831 517L900 541L900 425L831 413L762 437L692 401L623 389L554 449L485 449L415 437L346 455L277 407L208 419L138 425L69 413L0 437Z"/><path fill="#f7770f" d="M0 601L69 601L138 601L208 601L277 601L346 601L415 601L485 601L554 601L623 601L692 601L762 601L831 601L900 601L900 539L831 515L762 533L692 527L623 509L554 533L485 551L415 545L346 551L277 545L208 533L138 545L69 527L0 551Z"/></svg>