<svg id="visual" viewBox="0 0 900 600" width="900" height="600" xmlns="http://www.w3.org/2000/svg" xmlns:xlink="http://www.w3.org/1999/xlink" version="1.1"><path d="M0 115L7.5 106C15 97 30 79 45 75C60 71 75 81 90 100C105 119 120 147 135 156C150 165 165 155 180 140C195 125 210 105 225 104C240 103 255 121 270 132C285 143 300 147 315 150C330 153 345 155 360 158C375 161 390 165 405 164C420 163 435 157 450 136C465 115 480 79 495 68C510 57 525 71 540 90C555 109 570 133 585 141C600 149 615 141 630 127C645 113 660 93 675 90C690 87 705 101 720 101C735 101 750 87 765 79C780 71 795 69 810 80C825 91 840 115 855 122C870 129 885 119 892.5 114L900 109L900 0L892.5 0C885 0 870 0 855 0C840 0 825 0 810 0C795 0 780 0 765 0C750 0 735 0 720 0C705 0 690 0 675 0C660 0 645 0 630 0C615 0 600 0 585 0C570 0 555 0 540 0C525 0 510 0 495 0C480 0 465 0 450 0C435 0 420 0 405 0C390 0 375 0 360 0C345 0 330 0 315 0C300 0 285 0 270 0C255 0 240 0 225 0C210 0 195 0 180 0C165 0 150 0 135 0C120 0 105 0 90 0C75 0 60 0 45 0C30 0 15 0 7.5 0L0 0Z" fill="#fcaf3c"></path><path d="M0 313L7.5 320C15 327 30 341 45 344C60 347 75 339 90 329C105 319 120 307 135 295C150 283 165 271 180 255C195 239 210 219 225 242C240 265 255 331 270 345C285 359 300 321 315 295C330 269 345 255 360 253C375 251 390 261 405 271C420 281 435 291 450 281C465 271 480 241 495 250C510 259 525 307 540 332C555 357 570 359 585 353C600 347 615 333 630 329C645 325 660 331 675 314C690 297 705 257 720 251C735 245 750 273 765 272C780 271 795 241 810 226C825 211 840 211 855 235C870 259 885 307 892.5 331L900 355L900 107L892.5 112C885 117 870 127 855 120C840 113 825 89 810 78C795 67 780 69 765 77C750 85 735 99 720 99C705 99 690 85 675 88C660 91 645 111 630 125C615 139 600 147 585 139C570 131 555 107 540 88C525 69 510 55 495 66C480 77 465 113 450 134C435 155 420 161 405 162C390 163 375 159 360 156C345 153 330 151 315 148C300 145 285 141 270 130C255 119 240 101 225 102C210 103 195 123 180 138C165 153 150 163 135 154C120 145 105 117 90 98C75 79 60 69 45 73C30 77 15 95 7.5 104L0 113Z" fill="#ffe0b7"></path><path d="M0 397L7.5 416C15 435 30 473 45 488C60 503 75 495 90 489C105 483 120 479 135 470C150 461 165 447 180 438C195 429 210 425 225 436C240 447 255 473 270 483C285 493 300 487 315 485C330 483 345 485 360 482C375 479 390 471 405 460C420 449 435 435 450 434C465 433 480 445 495 452C510 459 525 461 540 455C555 449 570 435 585 443C600 451 615 481 630 494C645 507 660 503 675 485C690 467 705 435 720 432C735 429 750 455 765 454C780 453 795 425 810 421C825 417 840 437 855 449C870 461 885 465 892.5 467L900 469L900 353L892.5 329C885 305 870 257 855 233C840 209 825 209 810 224C795 239 780 269 765 270C750 271 735 243 720 249C705 255 690 295 675 312C660 329 645 323 630 327C615 331 600 345 585 351C570 357 555 355 540 330C525 305 510 257 495 248C480 239 465 269 450 279C435 289 420 279 405 269C390 259 375 249 360 251C345 253 330 267 315 293C300 319 285 357 270 343C255 329 240 263 225 240C210 217 195 237 180 253C165 269 150 281 135 293C120 305 105 317 90 327C75 337 60 345 45 342C30 339 15 325 7.5 318L0 311Z" fill="#ffffff"></path><path d="M0 511L7.5 519C15 527 30 543 45 550C60 557 75 555 90 553C105 551 120 549 135 545C150 541 165 535 180 532C195 529 210 529 225 534C240 539 255 549 270 547C285 545 300 531 315 532C330 533 345 549 360 545C375 541 390 517 405 505C420 493 435 493 450 504C465 515 480 537 495 540C510 543 525 527 540 522C555 517 570 523 585 529C600 535 615 541 630 541C645 541 660 535 675 524C690 513 705 497 720 497C735 497 750 513 765 515C780 517 795 505 810 506C825 507 840 521 855 522C870 523 885 511 892.5 505L900 499L900 467L892.5 465C885 463 870 459 855 447C840 435 825 415 810 419C795 423 780 451 765 452C750 453 735 427 720 430C705 433 690 465 675 483C660 501 645 505 630 492C615 479 600 449 585 441C570 433 555 447 540 453C525 459 510 457 495 450C480 443 465 431 450 432C435 433 420 447 405 458C390 469 375 477 360 480C345 483 330 481 315 483C300 485 285 491 270 481C255 471 240 445 225 434C210 423 195 427 180 436C165 445 150 459 135 468C120 477 105 481 90 487C75 493 60 501 45 486C30 471 15 433 7.5 414L0 395Z" fill="#ffe0b7"></path><path d="M0 601L7.5 601C15 601 30 601 45 601C60 601 75 601 90 601C105 601 120 601 135 601C150 601 165 601 180 601C195 601 210 601 225 601C240 601 255 601 270 601C285 601 300 601 315 601C330 601 345 601 360 601C375 601 390 601 405 601C420 601 435 601 450 601C465 601 480 601 495 601C510 601 525 601 540 601C555 601 570 601 585 601C600 601 615 601 630 601C645 601 660 601 675 601C690 601 705 601 720 601C735 601 750 601 765 601C780 601 795 601 810 601C825 601 840 601 855 601C870 601 885 601 892.5 601L900 601L900 497L892.5 503C885 509 870 521 855 520C840 519 825 505 810 504C795 503 780 515 765 513C750 511 735 495 720 495C705 495 690 511 675 522C660 533 645 539 630 539C615 539 600 533 585 527C570 521 555 515 540 520C525 525 510 541 495 538C480 535 465 513 450 502C435 491 420 491 405 503C390 515 375 539 360 543C345 547 330 531 315 530C300 529 285 543 270 545C255 547 240 537 225 532C210 527 195 527 180 530C165 533 150 539 135 543C120 547 105 549 90 551C75 553 60 555 45 548C30 541 15 525 7.5 517L0 509Z" fill="#fcaf3c"></path></svg>